<svg xmlns="http://www.w3.org/2000/svg" version="1.1" xmlns:xlink="http://www.w3.org/1999/xlink" xmlns:svgjs="http://svgjs.dev/svgjs" width="1500" height="215" viewBox="0 0 1500 215"><g transform="matrix(1,0,0,1,-0.9090909090909918,-0.22326701861777565)"><svg viewBox="0 0 396 57" data-background-color="#ffffff" preserveAspectRatio="xMidYMid meet" height="215" width="1500" xmlns="http://www.w3.org/2000/svg" xmlns:xlink="http://www.w3.org/1999/xlink"><g id="tight-bounds" transform="matrix(1,0,0,1,0.2400000000000091,0.05919172121494398)"><svg viewBox="0 0 395.52 56.88161655757009" height="56.88161655757009" width="395.52"><g><svg viewBox="0 0 475.60269091230606 68.39869007438895" height="56.88161655757009" width="395.52"><g transform="matrix(1,0,0,1,0,9.453075111583427)"><svg viewBox="0 0 395.52 49.4925398512221" height="49.4925398512221" width="395.52"><g id="textblocktransform"><svg viewBox="0 0 395.52 49.4925398512221" height="49.4925398512221" width="395.52" id="textblock"><g><svg viewBox="0 0 395.52 49.4925398512221" height="49.4925398512221" width="395.52"><g transform="matrix(1,0,0,1,0,0)"><svg width="395.52" viewBox="0.25 -36.95 378.76 47.1" height="49.4925398512221" data-palette-color="#b81d33"><path d="M6.75 10.15L6.75 10.15Q5.3 10.15 4 9.63 2.7 9.1 2.2 8.05L2.2 8.05Q3.4 2.95 4.17-1 4.95-4.95 5.4-8.05 5.85-11.15 6.05-13.73 6.25-16.3 6.3-18.7L6.3-18.7Q4.6-18.6 3.05-18.38 1.5-18.15 0.35-17.75L0.35-17.75 0.25-18.1Q1.7-19.55 3.25-20.53 4.8-21.5 6.35-22.1L6.35-22.1 6.35-25.9Q6.35-29.75 7.9-32.18 9.45-34.6 11.88-35.77 14.3-36.95 16.9-36.95L16.9-36.95Q20.35-36.95 22.08-35.3 23.8-33.65 23.8-31.6L23.8-31.6Q23.8-30.1 22.88-28.7 21.95-27.3 20.1-26.38 18.25-25.45 15.45-25.45L15.45-25.45Q16.25-26.9 16.68-28.35 17.1-29.8 17.1-30.9L17.1-30.9Q17.1-31.75 16.85-32.27 16.6-32.8 16.15-32.8L16.15-32.8Q15.2-32.8 14.33-30.43 13.45-28.05 13.45-24.2L13.45-24.2 13.45-23.25Q14.9-23.3 16.23-23.2 17.55-23.1 18.7-23L18.7-23Q18.8-22.65 18.85-22.25 18.9-21.85 18.9-21.45L18.9-21.45Q18.9-20.7 18.7-19.95 18.5-19.2 18.15-18.4L18.15-18.4Q17.25-18.5 16.1-18.6 14.95-18.7 13.65-18.75L13.65-18.75 13.65-17.65Q13.65-14.9 13.43-11.3 13.2-7.7 12.6-2.75 12 2.2 10.75 9.05L10.75 9.05Q9.2 10.15 6.75 10.15ZM27.1 0.2L27.1 0.2Q25.75 0.2 24.47-0.48 23.2-1.15 22.4-2.65 21.6-4.15 21.6-6.5L21.6-6.5Q21.6-8.6 22.17-11.43 22.75-14.25 23.47-17.3 24.2-20.35 24.75-23.25 25.3-26.15 25.25-28.4L25.25-28.4Q25.25-30.55 24.75-31.45L24.75-31.45 24.7-31.6Q25.25-33.2 26.65-34.1 28.05-35 29.6-35L29.6-35Q31.35-35 32.72-33.68 34.1-32.35 34.1-29.25L34.1-29.25Q34.1-27.6 33.7-25.33 33.3-23.05 32.75-20.48 32.2-17.9 31.62-15.4 31.05-12.9 30.65-10.8 30.25-8.7 30.25-7.35L30.25-7.35Q30.25-5.95 30.65-5.43 31.05-4.9 31.55-4.9L31.55-4.9Q32.1-4.9 32.6-5.33 33.1-5.75 33.25-6.1L33.25-6.1 33.65-6Q33.6-4.2 32.62-2.8 31.65-1.4 30.17-0.6 28.7 0.2 27.1 0.2ZM54.9 0.25L54.9 0.25Q53.15 0.25 51.85-0.9 50.55-2.05 50.55-4.65L50.55-4.65Q50.55-4.9 50.55-5.15 50.55-5.4 50.6-5.65L50.6-5.65Q49.1-2.65 47.22-1.23 45.35 0.2 43.45 0.2L43.45 0.2Q41.7 0.2 40.15-1.03 38.6-2.25 37.65-4.65 36.7-7.05 36.7-10.45L36.7-10.45Q36.7-13.95 37.67-16.7 38.65-19.45 40.25-21.35 41.85-23.25 43.75-24.23 45.65-25.2 47.45-25.2L47.45-25.2Q49.45-25.2 51.05-23.98 52.65-22.75 53.25-20.1L53.25-20.1Q53.4-20.95 53.47-21.65 53.55-22.35 53.55-22.6L53.55-22.6Q53.6-23.95 54.92-24.6 56.25-25.25 57.85-25.25L57.85-25.25Q59.25-25.25 60.5-24.7 61.75-24.15 62.2-22.85L62.2-22.85 62.3-22.55Q61.7-21.2 61.1-19.3 60.5-17.4 60-15.33 59.5-13.25 59.2-11.28 58.9-9.3 58.9-7.8L58.9-7.8Q58.9-6.15 59.25-5.53 59.6-4.9 60.1-4.9L60.1-4.9Q60.95-4.9 61.65-6.1L61.65-6.1 62.05-5.9Q62.05-4.2 60.95-2.8 59.85-1.4 58.2-0.58 56.55 0.25 54.9 0.25ZM46.75-6.1L46.75-6.1Q48.05-6.1 49.62-8.43 51.2-10.75 52.35-15.1L52.35-15.1Q52.45-15.55 52.55-15.98 52.65-16.4 52.7-16.8L52.7-16.8Q51.9-18.65 51.02-19.43 50.15-20.2 49.3-20.2L49.3-20.2Q48.05-20.2 46.97-18.88 45.9-17.55 45.22-15.55 44.55-13.55 44.55-11.55L44.55-11.55Q44.55-8.8 45.17-7.45 45.8-6.1 46.75-6.1ZM72.34 0.2L72.34 0.2Q69.44 0.2 67.74-1.33 66.04-2.85 66.04-6.05L66.04-6.05Q66.04-7.9 66.52-10 66.99-12.1 67.44-13.75L67.44-13.75Q67.89-15.35 68.17-16.55 68.44-17.75 68.44-18.4L68.44-18.4Q68.44-19.2 68.09-19.55 67.74-19.9 67.24-19.9L67.24-19.9Q66.04-19.9 65.24-18.75L65.24-18.75 65.04-18.95Q65.09-20.65 66.14-22.08 67.19-23.5 68.84-24.35 70.49-25.2 72.19-25.2L72.19-25.2Q74.09-25.2 75.44-24.08 76.79-22.95 76.69-20.55L76.69-20.55Q76.64-19.5 76.32-17.9 75.99-16.3 75.44-14.1L75.44-14.1Q75.09-12.7 74.72-10.93 74.34-9.15 74.34-7.7L74.34-7.7Q74.34-6.6 74.69-5.95 75.04-5.3 75.84-5.3L75.84-5.3Q76.89-5.3 78.17-6.48 79.44-7.65 80.39-10.33 81.34-13 81.49-17.45L81.49-17.45Q81.64-20.85 81.04-22.4L81.04-22.4 81.04-22.65Q81.49-23.35 82.42-24 83.34-24.65 84.49-25.08 85.64-25.5 86.64-25.5L86.64-25.5Q88.24-25.5 89.37-23.95 90.49-22.4 90.34-18.55L90.34-18.55Q90.24-14.85 89.02-11.85 87.79-8.85 85.84-6.6 83.89-4.35 81.57-2.85 79.24-1.35 76.84-0.58 74.44 0.2 72.34 0.2ZM103.54 0.35L103.54 0.35Q99.79 0.35 97.34-1.15 94.89-2.65 93.72-5.13 92.54-7.6 92.54-10.4L92.54-10.4Q92.54-13.05 93.52-15.7 94.49-18.35 96.37-20.53 98.24-22.7 100.94-24.03 103.64-25.35 107.14-25.35L107.14-25.35Q110.89-25.35 113.32-23.83 115.74-22.3 116.92-19.8 118.09-17.3 118.09-14.45L118.09-14.45Q118.09-11.85 117.14-9.22 116.19-6.6 114.32-4.42 112.44-2.25 109.74-0.95 107.04 0.35 103.54 0.35ZM104.89-3.9L104.89-3.9Q106.24-3.9 107.14-5.3 108.04-6.7 108.49-8.88 108.94-11.05 108.94-13.3L108.94-13.3Q108.94-15.3 108.57-17.07 108.19-18.85 107.44-19.98 106.69-21.1 105.49-21.1L105.49-21.1Q104.19-21.1 103.27-19.7 102.34-18.3 101.89-16.15 101.44-14 101.44-11.7L101.44-11.7Q101.44-9.7 101.82-7.93 102.19-6.15 102.94-5.03 103.69-3.9 104.89-3.9ZM127.64 0.2L127.64 0.2Q125.39 0.2 123.86-1.65 122.34-3.5 122.34-6.6L122.34-6.6Q122.34-8.3 122.74-10.25 123.14-12.2 123.54-13.95L123.54-13.95Q123.89-15.25 124.11-16.38 124.34-17.5 124.34-18.2L124.34-18.2Q124.34-19.1 123.96-19.5 123.59-19.9 123.09-19.9L123.09-19.9Q122.59-19.9 122.09-19.58 121.59-19.25 121.29-18.6L121.29-18.6 120.89-18.75Q120.89-20.8 121.89-22.25 122.89-23.7 124.44-24.45 125.99-25.2 127.59-25.2L127.59-25.2Q128.89-25.2 130.09-24.68 131.29-24.15 132.06-23.05 132.84-21.95 132.84-20.3L132.84-20.3Q132.84-19.3 132.56-17.9 132.29-16.5 131.94-15L131.94-15Q131.59-13.45 131.26-11.88 130.94-10.3 130.94-9.1L130.94-9.1Q130.94-8 131.29-7.3 131.64-6.6 132.34-6.6L132.34-6.6Q133.64-6.6 135.26-9 136.89-11.4 137.89-15.45L137.89-15.45Q138.09-16.25 138.24-17.15 138.39-18.05 138.39-19L138.39-19Q138.39-19.75 138.29-20.53 138.19-21.3 137.99-22.1L137.99-22.1 137.99-22.45Q138.79-23.8 140.06-24.5 141.34-25.2 142.64-25.2L142.64-25.2Q144.39-25.2 145.79-24 147.19-22.8 147.19-20.5L147.19-20.5Q147.19-19.15 146.69-17.38 146.19-15.6 145.59-13.7L145.59-13.7Q144.99-11.85 144.49-10.05 143.99-8.25 143.99-6.85L143.99-6.85Q143.99-4.8 145.44-4.8L145.44-4.8Q145.84-4.8 146.41-5.03 146.99-5.25 147.49-5.95L147.49-5.95 147.84-5.85Q147.84-4.05 146.86-2.68 145.89-1.3 144.39-0.55 142.89 0.2 141.29 0.2L141.29 0.2Q139.24 0.2 137.61-1.3 135.99-2.8 135.99-6.2L135.99-6.2 135.99-6.3Q133.94-2.8 131.74-1.3 129.54 0.2 127.64 0.2ZM156.28 0.2L156.28 0.2Q154.49 0.2 153.09-1.28 151.69-2.75 151.69-5.45L151.69-5.45Q151.69-6.75 151.99-8.4 152.28-10.05 152.69-11.78 153.09-13.5 153.38-15.03 153.69-16.55 153.69-17.55L153.69-17.55Q153.69-18.6 153.31-19.23 152.94-19.85 152.34-19.85L152.34-19.85Q151.38-19.85 150.38-18.55L150.38-18.55 150.09-18.75Q150.03-19.55 150.44-20.65 150.84-21.75 151.69-22.78 152.53-23.8 153.86-24.5 155.19-25.2 156.99-25.2L156.99-25.2Q159.63-25.2 160.84-23.68 162.03-22.15 162.03-20L162.03-20Q162.03-19.65 162.01-19.28 161.99-18.9 161.94-18.55L161.94-18.55Q163.74-21.8 165.71-23.53 167.69-25.25 169.38-25.25L169.38-25.25Q170.99-25.25 171.74-24 172.49-22.75 172.49-21L172.49-21Q172.49-19.4 171.86-17.75 171.24-16.1 170.01-15.03 168.78-13.95 167.03-14L167.03-14 166.84-14.1Q166.78-15.4 165.99-16.15 165.19-16.9 164.19-16.9L164.19-16.9Q162.84-16.9 161.66-15.55 160.49-14.2 160.49-11.65L160.49-11.65Q160.49-10.1 160.84-8.3 161.19-6.5 161.19-5.25L161.19-5.25Q161.19-3.75 160.49-2.5 159.78-1.25 158.69-0.53 157.59 0.2 156.28 0.2ZM188.23 10.15L188.23 10.15Q186.78 10.15 185.48 9.63 184.18 9.1 183.68 8.05L183.68 8.05Q184.88 2.95 185.66-1 186.43-4.95 186.88-8.05 187.33-11.15 187.53-13.73 187.73-16.3 187.78-18.7L187.78-18.7Q186.08-18.6 184.53-18.38 182.98-18.15 181.83-17.75L181.83-17.75 181.73-18.1Q183.18-19.55 184.73-20.53 186.28-21.5 187.83-22.1L187.83-22.1 187.83-25.9Q187.83-29.75 189.38-32.18 190.93-34.6 193.36-35.77 195.78-36.95 198.38-36.95L198.38-36.95Q201.83-36.95 203.56-35.3 205.28-33.65 205.28-31.6L205.28-31.6Q205.28-30.1 204.36-28.7 203.43-27.3 201.58-26.38 199.73-25.45 196.93-25.45L196.93-25.45Q197.73-26.9 198.16-28.35 198.58-29.8 198.58-30.9L198.58-30.9Q198.58-31.75 198.33-32.27 198.08-32.8 197.63-32.8L197.63-32.8Q196.68-32.8 195.81-30.43 194.93-28.05 194.93-24.2L194.93-24.2 194.93-23.25Q196.38-23.3 197.71-23.2 199.03-23.1 200.18-23L200.18-23Q200.28-22.65 200.33-22.25 200.38-21.85 200.38-21.45L200.38-21.45Q200.38-20.7 200.18-19.95 199.98-19.2 199.63-18.4L199.63-18.4Q198.73-18.5 197.58-18.6 196.43-18.7 195.13-18.75L195.13-18.75 195.13-17.65Q195.13-14.9 194.91-11.3 194.68-7.7 194.08-2.75 193.48 2.2 192.23 9.05L192.23 9.05Q190.68 10.15 188.23 10.15ZM213.78 0.35L213.78 0.35Q210.03 0.35 207.58-1.15 205.13-2.65 203.95-5.13 202.78-7.6 202.78-10.4L202.78-10.4Q202.78-13.05 203.75-15.7 204.73-18.35 206.6-20.53 208.48-22.7 211.18-24.03 213.88-25.35 217.38-25.35L217.38-25.35Q221.13-25.35 223.55-23.83 225.98-22.3 227.15-19.8 228.33-17.3 228.33-14.45L228.33-14.45Q228.33-11.85 227.38-9.22 226.43-6.6 224.55-4.42 222.68-2.25 219.98-0.95 217.28 0.35 213.78 0.35ZM215.13-3.9L215.13-3.9Q216.48-3.9 217.38-5.3 218.28-6.7 218.73-8.88 219.18-11.05 219.18-13.3L219.18-13.3Q219.18-15.3 218.8-17.07 218.43-18.85 217.68-19.98 216.93-21.1 215.73-21.1L215.73-21.1Q214.43-21.1 213.5-19.7 212.58-18.3 212.13-16.15 211.68-14 211.68-11.7L211.68-11.7Q211.68-9.7 212.05-7.93 212.43-6.15 213.18-5.03 213.93-3.9 215.13-3.9ZM237.88 0.2L237.88 0.2Q235.63 0.2 234.1-1.65 232.58-3.5 232.58-6.6L232.58-6.6Q232.58-8.3 232.98-10.25 233.38-12.2 233.78-13.95L233.78-13.95Q234.13-15.25 234.35-16.38 234.58-17.5 234.58-18.2L234.58-18.2Q234.58-19.1 234.2-19.5 233.83-19.9 233.33-19.9L233.33-19.9Q232.83-19.9 232.33-19.58 231.83-19.25 231.53-18.6L231.53-18.6 231.13-18.75Q231.13-20.8 232.13-22.25 233.13-23.7 234.68-24.45 236.23-25.2 237.83-25.2L237.83-25.2Q239.13-25.2 240.33-24.68 241.53-24.15 242.3-23.05 243.08-21.95 243.08-20.3L243.08-20.3Q243.08-19.3 242.8-17.9 242.53-16.5 242.18-15L242.18-15Q241.83-13.45 241.5-11.88 241.18-10.3 241.18-9.1L241.18-9.1Q241.18-8 241.53-7.3 241.88-6.6 242.58-6.6L242.58-6.6Q243.88-6.6 245.5-9 247.13-11.4 248.13-15.45L248.13-15.45Q248.33-16.25 248.48-17.15 248.63-18.05 248.63-19L248.63-19Q248.63-19.75 248.53-20.53 248.43-21.3 248.23-22.1L248.23-22.1 248.23-22.45Q249.03-23.8 250.3-24.5 251.58-25.2 252.88-25.2L252.88-25.2Q254.63-25.2 256.03-24 257.43-22.8 257.43-20.5L257.43-20.5Q257.43-19.15 256.93-17.38 256.43-15.6 255.83-13.7L255.83-13.7Q255.23-11.85 254.73-10.05 254.23-8.25 254.23-6.85L254.23-6.85Q254.23-4.8 255.68-4.8L255.68-4.8Q256.08-4.8 256.65-5.03 257.23-5.25 257.73-5.95L257.73-5.95 258.08-5.85Q258.08-4.05 257.1-2.68 256.13-1.3 254.63-0.55 253.13 0.2 251.53 0.2L251.53 0.2Q249.48 0.2 247.85-1.3 246.23-2.8 246.23-6.2L246.23-6.2 246.23-6.3Q244.18-2.8 241.98-1.3 239.78 0.2 237.88 0.2ZM266.52 0.15L266.52 0.15Q264.67 0.15 263.17-1.33 261.67-2.8 261.67-5.45L261.67-5.45Q261.67-6.75 262.02-8.4 262.37-10.05 262.8-11.75 263.22-13.45 263.57-14.95 263.92-16.45 263.92-17.4L263.92-17.4Q263.92-18.4 263.52-18.98 263.12-19.55 262.47-19.55L262.47-19.55Q261.62-19.55 260.62-18.55L260.62-18.55 260.32-18.75Q260.27-19.55 260.67-20.65 261.07-21.75 261.9-22.78 262.72-23.8 264.02-24.5 265.32-25.2 267.12-25.2L267.12-25.2Q269.77-25.2 271.05-23.68 272.32-22.15 272.32-19.95L272.32-19.95Q272.32-19.15 272.17-18.4L272.17-18.4Q273.22-19.95 274.77-21.53 276.32-23.1 278.2-24.15 280.07-25.2 282.07-25.2L282.07-25.2Q284.42-25.2 285.27-23.7 286.12-22.2 286.12-19.95L286.12-19.95Q286.12-17.85 285.67-15.45 285.22-13.05 284.77-10.83 284.32-8.6 284.32-7.1L284.32-7.1Q284.32-5.1 285.47-5.1L285.47-5.1Q286.07-5.1 286.52-5.48 286.97-5.85 287.12-6.2L287.12-6.2 287.47-6.05Q287.47-4.2 286.45-2.8 285.42-1.4 283.87-0.63 282.32 0.15 280.72 0.15L280.72 0.15Q278.77 0.15 277.27-1.2 275.77-2.55 275.77-5.6L275.77-5.6Q275.77-7.4 276.25-9.5 276.72-11.6 277.17-13.55 277.62-15.5 277.62-16.75L277.62-16.75Q277.62-17.5 277.35-17.93 277.07-18.35 276.37-18.35L276.37-18.35Q275.22-18.35 273.85-17.3 272.47-16.25 271.5-14.5 270.52-12.75 270.52-10.65L270.52-10.65Q270.52-9.3 270.85-8.05 271.17-6.8 271.17-5.35L271.17-5.35Q271.17-2.65 269.77-1.25 268.37 0.15 266.52 0.15ZM297.22 0.2L297.22 0.2Q295.62 0.2 294.19-0.53 292.77-1.25 291.89-2.8 291.02-4.35 291.02-6.75L291.02-6.75Q291.02-8.05 291.27-10.15 291.52-12.25 291.94-14.75 292.37-17.25 292.82-19.75L292.82-19.75Q291.82-19.7 290.89-19.55 289.97-19.4 289.07-19.2L289.07-19.2 288.97-19.55Q289.97-20.75 291.07-21.6 292.17-22.45 293.37-23L293.37-23Q294.02-26.3 294.47-28.73 294.92-31.15 294.92-31.6L294.92-31.6Q294.92-32.45 296.25-33 297.57-33.55 299.22-33.55L299.22-33.55Q300.67-33.55 301.94-33 303.22-32.45 303.67-31.15L303.67-31.15Q303.37-30.85 302.82-28.93 302.27-27 301.67-24.25L301.67-24.25Q302.62-24.2 303.62-24.15 304.62-24.1 305.67-24L305.67-24Q305.77-23.7 305.82-23.35 305.87-23 305.87-22.6L305.87-22.6Q305.87-21.85 305.64-20.98 305.42-20.1 305.12-19.4L305.12-19.4Q303.92-19.5 302.87-19.63 301.82-19.75 300.82-19.8L300.82-19.8Q300.42-17.65 300.1-15.5 299.77-13.35 299.6-11.6 299.42-9.85 299.42-8.85L299.42-8.85Q299.42-6.75 300.19-6.05 300.97-5.35 302.07-5.35L302.07-5.35Q303.07-5.35 303.87-5.75 304.67-6.15 305.02-6.7L305.02-6.7 305.52-6.55Q305.22-4.5 303.92-2.98 302.62-1.45 300.82-0.63 299.02 0.2 297.22 0.2ZM325.97 0.25L325.97 0.25Q324.22 0.25 322.92-0.9 321.62-2.05 321.62-4.65L321.62-4.65Q321.62-4.9 321.62-5.15 321.62-5.4 321.67-5.65L321.67-5.65Q320.17-2.65 318.29-1.23 316.42 0.2 314.52 0.2L314.52 0.2Q312.77 0.2 311.22-1.03 309.67-2.25 308.72-4.65 307.77-7.05 307.77-10.45L307.77-10.45Q307.77-13.95 308.74-16.7 309.72-19.45 311.32-21.35 312.92-23.25 314.82-24.23 316.72-25.2 318.52-25.2L318.52-25.2Q320.52-25.2 322.12-23.98 323.72-22.75 324.32-20.1L324.32-20.1Q324.47-20.95 324.54-21.65 324.62-22.35 324.62-22.6L324.62-22.6Q324.67-23.95 325.99-24.6 327.32-25.25 328.92-25.25L328.92-25.25Q330.32-25.25 331.57-24.7 332.82-24.15 333.27-22.85L333.27-22.85 333.37-22.55Q332.77-21.2 332.17-19.3 331.57-17.4 331.07-15.33 330.57-13.25 330.27-11.28 329.97-9.3 329.97-7.8L329.97-7.8Q329.97-6.15 330.32-5.53 330.67-4.9 331.17-4.9L331.17-4.9Q332.02-4.9 332.72-6.1L332.72-6.1 333.12-5.9Q333.12-4.2 332.02-2.8 330.92-1.4 329.27-0.58 327.62 0.25 325.97 0.25ZM317.82-6.1L317.82-6.1Q319.12-6.1 320.69-8.43 322.27-10.75 323.42-15.1L323.42-15.1Q323.52-15.55 323.62-15.98 323.72-16.4 323.77-16.8L323.77-16.8Q322.97-18.65 322.09-19.43 321.22-20.2 320.37-20.2L320.37-20.2Q319.12-20.2 318.04-18.88 316.97-17.55 316.29-15.55 315.62-13.55 315.62-11.55L315.62-11.55Q315.62-8.8 316.24-7.45 316.87-6.1 317.82-6.1ZM345.36-26.75L345.36-26.75Q343.36-26.75 342.09-27.98 340.81-29.2 340.81-31.05L340.81-31.05Q340.81-33.05 342.31-34.5 343.81-35.95 345.96-35.95L345.96-35.95Q347.96-35.95 349.24-34.7 350.51-33.45 350.51-31.6L350.51-31.6Q350.51-29.6 349.01-28.18 347.51-26.75 345.36-26.75ZM341.86 0.2L341.86 0.2Q339.91 0.2 338.36-1.18 336.81-2.55 336.81-5.6L336.81-5.6Q336.81-7.35 337.29-8.88 337.76-10.4 338.39-11.85 339.01-13.3 339.49-14.68 339.96-16.05 339.96-17.4L339.96-17.4Q339.96-18.6 339.56-19.13 339.16-19.65 338.61-19.65L338.61-19.65Q337.76-19.65 336.96-18.55L336.96-18.55 336.61-18.75Q336.81-20.75 337.89-22.18 338.96-23.6 340.54-24.4 342.11-25.2 343.66-25.2L343.66-25.2Q345.56-25.2 346.96-23.98 348.36-22.75 348.36-20L348.36-20Q348.36-18.35 347.89-16.53 347.41-14.7 346.79-12.9 346.16-11.1 345.69-9.55 345.21-8 345.21-6.9L345.21-6.9Q345.21-5.95 345.59-5.55 345.96-5.15 346.41-5.15L346.41-5.15Q346.86-5.15 347.29-5.43 347.71-5.7 347.91-6.05L347.91-6.05 348.26-5.95Q348.26-4.1 347.29-2.73 346.31-1.35 344.86-0.58 343.41 0.2 341.86 0.2ZM358.06 0.15L358.06 0.15Q356.21 0.15 354.71-1.33 353.21-2.8 353.21-5.45L353.21-5.45Q353.21-6.75 353.56-8.4 353.91-10.05 354.34-11.75 354.76-13.45 355.11-14.95 355.46-16.45 355.46-17.4L355.46-17.4Q355.46-18.4 355.06-18.98 354.66-19.55 354.01-19.55L354.01-19.55Q353.16-19.55 352.16-18.55L352.16-18.55 351.86-18.75Q351.81-19.55 352.21-20.65 352.61-21.75 353.44-22.78 354.26-23.8 355.56-24.5 356.86-25.2 358.66-25.2L358.66-25.2Q361.31-25.2 362.59-23.68 363.86-22.15 363.86-19.95L363.86-19.95Q363.86-19.15 363.71-18.4L363.71-18.4Q364.76-19.95 366.31-21.53 367.86-23.1 369.74-24.15 371.61-25.2 373.61-25.2L373.61-25.2Q375.96-25.2 376.81-23.7 377.66-22.2 377.66-19.95L377.66-19.95Q377.66-17.85 377.21-15.45 376.76-13.05 376.31-10.83 375.86-8.6 375.86-7.1L375.86-7.1Q375.86-5.1 377.01-5.1L377.01-5.1Q377.61-5.1 378.06-5.48 378.51-5.85 378.66-6.2L378.66-6.2 379.01-6.05Q379.01-4.2 377.99-2.8 376.96-1.4 375.41-0.63 373.86 0.15 372.26 0.15L372.26 0.15Q370.31 0.15 368.81-1.2 367.31-2.55 367.31-5.6L367.31-5.6Q367.31-7.4 367.79-9.5 368.26-11.6 368.71-13.55 369.16-15.5 369.16-16.75L369.16-16.75Q369.16-17.5 368.89-17.93 368.61-18.35 367.91-18.35L367.91-18.35Q366.76-18.35 365.39-17.3 364.01-16.25 363.04-14.5 362.06-12.75 362.06-10.65L362.06-10.65Q362.06-9.3 362.39-8.05 362.71-6.8 362.71-5.35L362.71-5.35Q362.71-2.65 361.31-1.25 359.91 0.15 358.06 0.15Z" opacity="1" transform="matrix(1,0,0,1,0,0)" fill="#b81d33" class="wordmark-text-0" data-fill-palette-color="primary" id="text-0"></path></svg></g></svg></g></svg></g></svg></g><g transform="matrix(1,0,0,1,407.2040008379171,0)"><svg viewBox="0 0 68.39869007438895 68.39869007438895" height="68.39869007438895" width="68.39869007438895"><g data-palette-color="#fe6e63"><rect width="18.695641953666314" height="68.39869007438895" fill="#fe6e63" stroke="transparent" data-fill-palette-color="accent" x="0" fill-opacity="1"></rect><rect width="18.695641953666314" height="68.39869007438895" fill="#fe6e63" stroke="transparent" data-fill-palette-color="accent" x="22.799563358129653" fill-opacity="0.75"></rect><rect width="18.695641953666314" height="68.39869007438895" fill="#fe6e63" stroke="transparent" data-fill-palette-color="accent" x="45.599126716259306" fill-opacity="0.5"></rect></g></svg></g></svg></g><defs></defs></svg><rect width="395.52" height="56.88161655757009" fill="none" stroke="none" visibility="hidden"></rect></g></svg></g></svg>